<svg width="41" height="28" viewBox="0 0 41 28" fill="none" xmlns="http://www.w3.org/2000/svg">
<path d="M0.451294 0.748657V27.3025H40.2872V0.748657H0.451294ZM36.882 14.0307L20.359 24.5743L3.84616 14.0307L20.359 3.48712L36.882 14.0307Z" fill="#47B71D"/>
<path d="M36.882 14.0308L20.359 24.5744L3.84613 14.0308L20.359 3.48718L36.882 14.0308ZM13.6923 12.318C12.5743 16.6872 15.8769 20.9231 20.3692 20.9231C23.4564 20.9231 26.0718 18.8923 26.9538 16.0923C27.0666 15.7436 27.1487 15.3949 27.2 15.0256C27.241 14.6974 27.2718 14.3692 27.2718 14.041C27.2718 10.2359 24.1846 7.14873 20.3795 7.14873C17.5589 7.14873 15.1384 8.84103 14.0718 11.2718C13.9077 11.5897 13.7846 11.9487 13.6923 12.318Z" fill="#FFF200"/>
<path d="M13.6923 12.3179C12.5743 16.6871 15.8769 20.923 20.3692 20.923C23.4564 20.923 26.0718 18.8923 26.9538 16.0923C26.2051 15.4051 24 13.5692 20.6154 12.6256C17.4666 11.7743 14.6974 12.123 13.6923 12.3179ZM20.8615 11.682C24.2871 12.6564 26.2359 14.1846 27.1897 15.0154C27.2307 14.6872 27.2615 14.3589 27.2615 14.0307C27.2615 10.2256 24.1743 7.13843 20.3692 7.13843C17.5487 7.13843 15.1282 8.83074 14.0615 11.2615C14.9436 11.1077 17.7128 10.8 20.8615 11.682Z" fill="#0437A0"/>
<path d="M20.8615 11.6821C17.7128 10.7897 14.9539 11.1077 14.0616 11.2513C13.9077 11.5897 13.7846 11.9487 13.6923 12.3077C14.6975 12.1128 17.4667 11.7641 20.6154 12.6154C24 13.559 26.2154 15.3949 26.9539 16.082C27.0667 15.7333 27.1385 15.3744 27.2 15.0154C26.2359 14.1949 24.2872 12.6564 20.8615 11.6821Z" fill="white"/>
<path d="M14.7897 11.8256C14.759 11.9487 14.6461 12.0307 14.5128 12.041C14.3282 12.0615 14.1846 11.9794 14.1538 11.7743C14.0718 11.1589 14.9641 11.2512 14.7897 11.8256ZM26.8718 14.9333C26.6461 14.5128 26.0615 14.9333 26.2667 15.323C26.4923 15.7435 27.0769 15.3128 26.8718 14.9333ZM26.7692 15.1589C26.759 15.1897 26.7385 15.2204 26.7179 15.2512C26.4 15.6615 26.1538 14.9845 26.5538 14.8922C26.6974 14.8615 26.8308 14.9846 26.7692 15.1589ZM26.1436 14.3589C25.9179 14.0615 25.5282 14.2871 25.8154 14.6153C26.1744 14.9948 25.5487 14.8307 25.682 14.5846C25.5795 14.5128 25.5692 14.482 25.5385 14.6153C25.4359 15.0461 26.4102 15.1179 25.9077 14.523C25.6513 14.2666 26.1641 14.3384 26.041 14.5743C26.082 14.6051 26.1026 14.6153 26.1436 14.6461C26.2154 14.564 26.2154 14.4512 26.1436 14.3589ZM25.4564 13.8871C25.2308 13.5999 24.8308 13.8358 25.1385 14.1435C25.5179 14.5025 24.8923 14.3794 25.0051 14.123C24.9026 14.0615 24.8821 14.0204 24.8615 14.1538C24.7795 14.6051 25.7846 14.564 25.2308 14.0512C24.9949 13.8051 25.4769 13.8666 25.3641 14.0922C25.4051 14.123 25.4256 14.1333 25.4667 14.164C25.5282 14.0717 25.518 13.9692 25.4564 13.8871ZM24.7692 13.6205C24.7897 13.5794 24.8103 13.5589 24.8308 13.5179C24.2872 13.2102 24.441 13.1589 24.0513 13.8563C24.2256 13.9589 24.3179 14.0102 24.4923 14.1128C24.5128 14.0717 24.5333 14.0512 24.5538 14.0102C24.4205 13.9281 24.3487 13.8871 24.2154 13.8153C24.2462 13.7538 24.2667 13.723 24.3077 13.6615C24.4308 13.7333 24.4923 13.764 24.6154 13.8358C24.6359 13.7948 24.6461 13.7743 24.6769 13.7333C24.5538 13.6615 24.4923 13.6205 24.3692 13.5589C24.4 13.5076 24.4103 13.4769 24.441 13.4256C24.5744 13.5076 24.6359 13.5384 24.7692 13.6205ZM24.0308 13.1281C23.9897 13.0358 23.7026 12.9128 23.6103 12.8717C23.4872 13.1076 23.4256 13.2307 23.3128 13.4666C23.3538 13.4871 23.3846 13.4974 23.4256 13.5179C23.4769 13.4256 23.4974 13.3743 23.5487 13.282C23.7333 13.3743 23.7641 13.3333 23.7026 13.6615C23.7538 13.682 23.7744 13.7025 23.8256 13.723C23.8359 13.6717 23.8872 13.3435 23.8461 13.3948C23.8461 13.3948 23.918 13.3948 23.9487 13.3743C24.0205 13.3333 24.0615 13.2204 24.0308 13.1281ZM23.8974 13.2307C23.8872 13.241 23.8769 13.2615 23.8667 13.2615C23.8051 13.3025 23.6513 13.2102 23.5897 13.1692C23.6205 13.1076 23.641 13.0769 23.6718 13.0153C23.7846 13.0769 23.959 13.1281 23.8974 13.2307ZM23.1795 12.6666C23.1077 12.6051 23.0256 12.5743 22.9436 12.5743C22.4615 12.564 22.5128 13.3846 22.9949 13.2512C22.9949 13.2717 22.9949 13.282 22.9846 13.3025C23.0154 13.3128 23.0359 13.323 23.0667 13.3435C23.2513 12.964 23.2821 13.0461 22.9538 12.9025C22.8923 13.0358 22.882 12.9948 23.0564 13.0769C23.0256 13.1384 23.0256 13.1589 22.9333 13.1589C22.5538 13.1486 22.7282 12.5846 23.0256 12.7076C23.1077 12.7487 23.159 12.8102 23.1282 12.8922C23.241 12.9435 23.2718 12.9743 23.2615 12.841C23.2718 12.7794 23.241 12.7179 23.1795 12.6666ZM22.3897 12.3589C22.2974 12.2769 22.1538 12.2358 22.0205 12.2974C21.4154 12.5845 22.2051 13.3435 22.4615 12.7179C22.482 12.6666 22.4923 12.6256 22.4923 12.5845C22.482 12.5025 22.4513 12.4204 22.3897 12.3589ZM22.3282 12.6769C22.1949 13.0256 21.7641 12.7487 22.0103 12.4615C22.1436 12.2871 22.4308 12.4102 22.3282 12.6769ZM21.6103 12.1128C21.559 12.0205 21.2513 11.9589 21.1487 11.9281C21.0769 12.1845 21.0359 12.3076 20.9641 12.564C21.0154 12.5743 21.0359 12.5846 21.0769 12.5948C21.1077 12.4922 21.1282 12.441 21.159 12.3384C21.3538 12.3999 21.3744 12.3589 21.3744 12.6871C21.4256 12.7076 21.4462 12.7076 21.4974 12.7281C21.4974 12.6769 21.4872 12.3487 21.4564 12.3999C21.4564 12.3999 21.5282 12.3794 21.559 12.3589C21.641 12.3076 21.6615 12.1948 21.6103 12.1128ZM21.5077 12.2358C21.4667 12.3384 21.3128 12.2666 21.2 12.2358C21.2205 12.1743 21.2308 12.1333 21.2513 12.0717C21.3641 12.1025 21.5385 12.123 21.5077 12.2358ZM20.8 11.8461C20.7179 11.764 20.4615 11.723 20.3385 11.7025C20.2769 11.9589 20.2461 12.0922 20.1744 12.3487C20.2256 12.3589 20.2564 12.3692 20.3077 12.3794C20.3795 12.1128 20.3487 12.1333 20.5128 12.1743C20.8308 12.2358 20.9231 11.9794 20.8 11.8461ZM20.7077 11.9897C20.6769 12.1127 20.5231 12.041 20.4 12.0205C20.4513 11.8153 20.4103 11.8153 20.6462 11.8871C20.6872 11.9076 20.7179 11.9384 20.7077 11.9897ZM19.3949 12.1845C19.2103 12.1538 19.118 12.1333 18.9333 12.1128C19.0462 11.4153 18.9231 11.5076 19.4974 11.6102C19.4872 11.6512 19.4872 11.6717 19.4769 11.7128C19.3333 11.6922 19.2718 11.6717 19.1282 11.6512C19.1179 11.7025 19.1179 11.7333 19.1077 11.7845C19.241 11.8051 19.3026 11.8153 19.4359 11.8358C19.4256 11.8769 19.4256 11.8974 19.4154 11.9384C19.2923 11.9179 19.2205 11.9076 19.0974 11.8871C19.0872 11.9487 19.0872 11.9794 19.0769 12.041C19.2205 12.0615 19.2923 12.0717 19.4359 12.1025C19.4051 12.123 19.3949 12.1435 19.3949 12.1845ZM18.1538 11.9999C18.1026 11.9999 18.082 11.9897 18.0308 11.9897C18.082 11.4563 18.1128 11.4769 17.8872 11.9794C17.8462 11.9794 17.8256 11.9692 17.7846 11.9692C17.641 11.4153 17.682 11.4563 17.641 11.9589C17.5897 11.9589 17.5692 11.9487 17.5179 11.9487C17.5385 11.6922 17.5385 11.5692 17.559 11.2922C17.6205 11.2922 17.6615 11.3025 17.7231 11.3025C17.8769 11.9076 17.7949 11.8974 18.041 11.3333C18.1026 11.3435 18.1333 11.3435 18.2051 11.3538C18.1949 11.6102 18.1846 11.7435 18.1538 11.9999ZM17.2513 11.9384C17.0462 11.9281 16.9538 11.9281 16.7487 11.9179C16.7692 11.1384 16.6359 11.241 17.2615 11.2717C17.2615 11.323 17.2615 11.3435 17.2615 11.3948C17.1077 11.3846 17.0359 11.3845 16.8821 11.3845C16.8821 11.4461 16.8821 11.4769 16.8821 11.5384C17.0256 11.5384 17.0974 11.5487 17.2308 11.5487C17.2308 11.5897 17.2308 11.6205 17.2308 11.6615C17.0872 11.6512 17.0256 11.6512 16.8821 11.6512C16.8821 11.723 16.8821 11.7538 16.8821 11.8153C17.0359 11.8153 17.1077 11.8256 17.2615 11.8256C17.2615 11.8769 17.2513 11.8974 17.2513 11.9384ZM16.4513 11.5999C16.4513 11.9384 16.2256 11.9179 15.8974 11.9281C15.8974 11.6922 15.8872 11.5589 15.8872 11.2615C16.2154 11.2512 16.4513 11.241 16.4513 11.5999ZM16.3282 11.5999C16.3282 11.3846 16.2154 11.3743 16.0103 11.3845C16.0103 11.5692 16.0102 11.6615 16.0205 11.8256C16.2256 11.8153 16.3282 11.8051 16.3282 11.5999ZM15.6308 11.9384C15.5795 11.9384 15.5487 11.9384 15.4974 11.9487C15.3846 11.7025 15.4154 11.7025 15.1692 11.723C15.1795 11.8256 15.1795 11.8769 15.1795 11.9692C15.1282 11.9692 15.1077 11.9794 15.0564 11.9794C15.0461 11.7435 15.0256 11.6205 15.0154 11.3128C15.2718 11.2922 15.5795 11.2205 15.5795 11.4871C15.5795 11.5281 15.5692 11.5692 15.559 11.5999C15.5385 11.6307 15.4769 11.6717 15.4769 11.6717C15.4769 11.6717 15.5077 11.6615 15.6308 11.9384ZM15.4461 11.5281C15.5077 11.364 15.3128 11.4051 15.1487 11.4153C15.1487 11.4974 15.159 11.5281 15.159 11.5999C15.2308 11.5999 15.4256 11.5999 15.4461 11.5281ZM14.5026 11.9487C14.5846 11.9384 14.6462 11.8871 14.6667 11.8051C14.7692 11.3333 14.1026 11.4153 14.3077 11.8461C14.3385 11.8974 14.3692 11.9281 14.4205 11.9384C14.4513 11.9487 14.4718 11.9487 14.5026 11.9487Z" fill="#119E07"/>
<path d="M15.3538 15.3949L15.4154 15.6H15.6308L15.4564 15.7231L15.5282 15.9282L15.3538 15.8051L15.1795 15.9282L15.2513 15.7231L15.0769 15.6H15.2923L15.3538 15.3949ZM20.3692 19.3231L20.3897 19.3949H20.4615L20.4 19.4359L20.4205 19.5077L20.359 19.4667L20.2974 19.5077L20.3179 19.4359L20.2564 19.3949H20.3282L20.3692 19.3231ZM21.8872 17.7025L21.9282 17.8359H22.0615L21.9487 17.9179L21.9897 18.0513L21.8769 17.9692L21.7641 18.0513L21.8051 17.9179L21.6923 17.8359H21.8256L21.8872 17.7025ZM23.0154 17.8769L23.0564 18.0102H23.1897L23.0769 18.0923L23.1179 18.2256L23.0051 18.1436L22.8923 18.2256L22.9333 18.0923L22.8205 18.0102H22.9538L23.0154 17.8769ZM23.7846 17.641L23.8256 17.7743H23.959L23.8461 17.8564L23.8871 17.9897L23.7743 17.9077L23.6615 17.9897L23.7025 17.8564L23.5897 17.7743H23.7231L23.7846 17.641ZM26.1538 16.3282L26.1948 16.4615H26.3282L26.2154 16.5436L26.2564 16.6769L26.1436 16.5949L26.0308 16.6769L26.0718 16.5436L25.9589 16.4615H26.0923L26.1538 16.3282ZM23.8051 19.0154L23.8461 19.1487H23.9795L23.8666 19.2308L23.9077 19.3641L23.7948 19.282L23.682 19.3641L23.7231 19.2308L23.6102 19.1487H23.7436L23.8051 19.0154ZM24.5025 17.7743L24.5436 17.9077H24.6769L24.5641 17.9897L24.6051 18.1231L24.4923 18.041L24.3795 18.1231L24.4205 17.9897L24.3077 17.9077H24.441L24.5025 17.7743ZM22.2359 13.5077L22.2769 13.641H22.4102L22.2974 13.7231L22.3384 13.8564L22.2256 13.7743L22.1128 13.8564L22.1538 13.7231L22.041 13.641H22.1743L22.2359 13.5077ZM19.6718 15.5692L19.7128 15.7026H19.8461L19.7333 15.7846L19.7743 15.9179L19.6615 15.8359L19.5487 15.9179L19.5897 15.7846L19.4769 15.7026H19.6102L19.6718 15.5692ZM14.5128 16.1128L14.5538 16.2461H14.6872L14.5743 16.3282L14.6154 16.4615L14.5025 16.3795L14.3897 16.4615L14.4308 16.3282L14.3179 16.2461H14.4513L14.5128 16.1128ZM25.4769 16.8205L25.5282 16.9846H25.7025L25.5589 17.0872L25.6102 17.2513L25.4666 17.1487L25.3231 17.2513L25.3743 17.0872L25.2308 16.9846H25.4051L25.4769 16.8205ZM25.0564 17.3743L25.1077 17.5384H25.282L25.1384 17.641L25.1897 17.8051L25.0461 17.7025L24.9025 17.8051L24.9538 17.641L24.8102 17.5384H24.9846L25.0564 17.3743ZM22.4307 18.4308L22.482 18.5949H22.6564L22.5128 18.6974L22.5641 18.8615L22.4205 18.759L22.2769 18.8615L22.3282 18.6974L22.1846 18.5949H22.359L22.4307 18.4308ZM23.8256 18.2667L23.8769 18.4308H24.0513L23.9077 18.5333L23.959 18.6974L23.8154 18.5949L23.6718 18.6974L23.7231 18.5333L23.5795 18.4308H23.7538L23.8256 18.2667ZM16.5743 16.8205L16.6256 16.9846H16.8L16.6564 17.0872L16.7077 17.2513L16.5641 17.1487L16.4205 17.2513L16.4718 17.0872L16.3282 16.9846H16.5025L16.5743 16.8205ZM21.159 15.5179L21.2102 15.682H21.3846L21.241 15.7846L21.2923 15.9487L21.1487 15.8461L21.0051 15.9487L21.0564 15.7846L20.9128 15.682H21.0872L21.159 15.5179ZM20.3692 14.9026L20.4205 15.0666H20.5948L20.4513 15.1692L20.5025 15.3333L20.359 15.2308L20.2154 15.3333L20.2666 15.1692L20.123 15.0666H20.2974L20.3692 14.9026ZM17.7436 14.0615L17.7949 14.2256H17.9692L17.8256 14.3282L17.8769 14.4923L17.7333 14.3897L17.5897 14.4923L17.641 14.3282L17.4974 14.2256H17.6718L17.7436 14.0615ZM16.7795 16.1436L16.8307 16.3077H17.0051L16.8615 16.4102L16.9128 16.5743L16.7692 16.4718L16.6256 16.5743L16.6769 16.4102L16.5333 16.3077H16.7077L16.7795 16.1436ZM20.0205 16.1026L20.0513 16.1949H20.1436L20.0615 16.2461L20.0923 16.3384L20.0102 16.2769L19.9282 16.3384L19.959 16.2461L19.8769 16.1949H19.9692L20.0205 16.1026ZM16.0308 15.1384L16.0615 15.2308H16.1538L16.0718 15.2923L16.1025 15.3846L16.0205 15.3231L15.9384 15.3846L15.9692 15.2923L15.8872 15.2308H15.9795L16.0308 15.1384ZM22.5128 11.5897L22.5743 11.7949H22.7897L22.6154 11.9282L22.6872 12.1333L22.5128 12.0102L22.3384 12.1333L22.4102 11.9282L22.2359 11.7949H22.4513L22.5128 11.5897ZM25.2 16.1538L25.2718 16.359H25.4872L25.3128 16.482L25.3846 16.6872L25.2102 16.5641L25.0359 16.6872L25.1077 16.482L24.9333 16.359H25.1487L25.2 16.1538ZM14.7384 12.5025L14.8102 12.7077H15.0256L14.8513 12.8308L14.9231 13.0359L14.7487 12.9128L14.5743 13.0359L14.6461 12.8308L14.4718 12.7077H14.6872L14.7384 12.5025ZM20.3692 16.8205L20.441 17.0256H20.6564L20.482 17.1487L20.5538 17.3538L20.3795 17.2307L20.2051 17.3538L20.2666 17.1487L20.0923 17.0256H20.3077L20.3692 16.8205ZM17.6 17.3846L17.6718 17.5897H17.8872L17.7128 17.7128L17.7743 17.9179L17.6 17.7949L17.4256 17.9179L17.4974 17.7128L17.3231 17.5897H17.5384L17.6 17.3846Z" fill="white"/>
</svg>
