<svg width="129" height="26" viewBox="0 0 129 26" fill="none" xmlns="http://www.w3.org/2000/svg">
<path d="M12.966 26C20.1269 26 25.932 20.1797 25.932 13C25.932 5.8203 20.1269 0 12.966 0C5.80507 0 0 5.8203 0 13C0 20.1797 5.80507 26 12.966 26Z" fill="#F58A1F"/>
<path d="M12.9901 0.721999C11.5672 0.721999 10.1582 1.00303 8.84367 1.54903C7.52913 2.09504 6.33473 2.89532 5.32869 3.90419C4.32265 4.91305 3.52468 6.11074 2.98035 7.42884C2.43601 8.74694 2.15598 10.1596 2.15625 11.5863C2.15663 12.1637 2.20237 12.7403 2.29303 13.3106C3.70106 9.64009 7.52287 7.00419 12.0225 7.00419C15.784 7.00419 19.0627 8.84347 20.873 11.5863H20.9052C21.9534 11.5596 22.975 11.9182 23.7776 12.5946C23.8078 12.2639 23.8239 11.9311 23.8239 11.5863C23.8241 10.1596 23.5441 8.74694 22.9998 7.42884C22.4554 6.11074 21.6575 4.91305 20.6514 3.90419C19.6454 2.89532 18.451 2.09504 17.1364 1.54903C15.8219 1.00303 14.4129 0.721999 12.9901 0.721999Z" fill="#FFDD00"/>
<path d="M23.7776 12.5866C22.975 11.9102 21.9534 11.5515 20.9052 11.5782H20.8731C17.6849 11.5963 14.3297 14.3734 13.3702 17.7979C12.8593 19.6129 13.1309 21.2626 13.9737 22.4001C13.6498 22.4303 13.32 22.4465 12.9881 22.4465C10.4134 22.4462 7.92298 21.5266 5.96316 19.8525C4.00334 18.1784 2.70222 15.8592 2.29303 13.3106C1.91469 14.2944 1.72037 15.3398 1.71977 16.3942C1.71977 19.0503 2.92666 21.4482 4.87779 23.1584C6.416 24.3871 8.2127 25.249 10.132 25.6789C12.0514 26.1089 14.0431 26.0957 15.9566 25.6403C17.8701 25.1849 19.6553 24.2993 21.1772 23.0503C22.699 21.8014 23.9177 20.2218 24.7411 18.4311C24.8196 18.2294 24.888 18.0137 24.9423 17.8019C25.5457 15.6157 25.0428 13.6958 23.7676 12.5866" fill="#EC1B2E"/>
<path d="M32.1112 17.9007C28.6153 14.3956 29.2952 9.91033 31.9302 7.26637C34.5652 4.6224 39.3203 3.63016 43.1763 8.48852L35.0279 16.6584C37.164 18.1205 39.5014 17.6204 41.2795 15.8376C42.3979 14.7163 43.0376 13.3549 43.0758 11.8726L45.1939 11.913C45.4131 13.9297 44.6347 16.1582 42.8766 17.9209C40.0606 20.7443 35.5669 21.3655 32.1112 17.9007ZM39.5818 8.80717C37.6629 7.1252 35.3074 7.64753 33.829 9.12783C32.3506 10.6081 31.8517 12.8729 33.3684 15.0369L39.5818 8.80717Z" fill="black"/>
<path d="M58.5098 20.3914V17.7575H58.4254C57.8903 18.9192 56.0257 20.3914 53.3424 20.3914C49.8665 20.3914 46.2217 17.814 46.2217 12.7459C46.2217 7.67778 49.8665 5.09836 53.3424 5.09836C56.0257 5.09836 57.8903 6.57059 58.4254 7.73224H58.5098V0H61.6176V20.3914H58.5098ZM53.3363 17.5679C55.7099 17.5679 57.9989 15.9243 57.9989 12.754C57.9989 9.58362 55.7179 7.92988 53.3363 7.92988C50.9547 7.92988 48.7099 9.57353 48.7099 12.7459C48.7099 15.9182 50.9929 17.5599 53.3363 17.5599V17.5679Z" fill="black"/>
<path d="M66.1413 25.036V22.4586C66.8191 22.9123 68.2594 23.3661 69.8987 23.3661C72.751 23.3661 74.8992 22.0633 74.8992 19.2882V17.7575H74.7283C74.2214 18.9192 72.3849 20.3914 69.7298 20.3914C66.2821 20.3914 62.6111 17.814 62.6111 12.7459C62.6111 7.67779 66.2821 5.09836 69.7298 5.09836C72.3849 5.09836 74.2214 6.57059 74.7283 7.73224H74.8992V5.07416H78.005V19.1168C78.005 24.5621 73.797 26 70.4358 26C68.5913 26 66.9318 25.5745 66.1413 25.036ZM69.7257 17.5599C72.0973 17.5599 74.3863 15.9162 74.3863 12.7459C74.3863 9.57555 72.0973 7.92988 69.7257 7.92988C67.3542 7.92988 65.0993 9.57353 65.0993 12.7459C65.0993 15.9182 67.3844 17.5599 69.7257 17.5599Z" fill="black"/>
<path d="M81.3924 17.9007C77.8964 14.3956 78.5763 9.91033 81.2114 7.26637C83.8464 4.6224 88.6015 3.63016 92.4575 8.48852L84.307 16.6584C86.4452 18.1205 88.7826 17.6204 90.5587 15.8376C91.6791 14.7163 92.3167 13.3549 92.3569 11.8726L94.475 11.913C94.6943 13.9297 93.9158 16.1582 92.1578 17.9209C89.3417 20.7443 84.8461 21.3655 81.3924 17.9007ZM88.861 8.80717C86.9441 7.1252 84.5866 7.64753 83.1082 9.12783C81.6297 10.6081 81.1309 12.8729 82.6496 15.0369L88.861 8.80717Z" fill="black"/>
<path d="M128.572 15.9465C127.164 15.9465 126.506 15.2184 126.506 13.8007V5.06004H122.165V11.55C121.666 10.476 120.872 9.56717 119.875 8.93039C118.879 8.2936 117.722 7.95533 116.54 7.95533C115.358 7.95533 114.201 8.2936 113.205 8.93039C112.208 9.56717 111.414 10.476 110.915 11.55V8.08517H106.63V14.1919C106.63 15.293 106.053 16.0413 105.086 16.0413C104.118 16.0413 103.539 15.293 103.539 14.1919V8.08517H99.2V14.2484C99.2 18.0197 101.509 20.3914 105.086 20.3914C107.956 20.3914 110.006 18.7941 110.677 16.2066C111.097 17.4205 111.881 18.4744 112.921 19.2236C113.962 19.9729 115.209 20.3809 116.49 20.3915C117.771 20.4021 119.024 20.0149 120.077 19.2829C121.13 18.5509 121.931 17.5101 122.37 16.3034C123.008 19.0724 125.098 20.2986 127.902 20.2986H129V15.9465H128.572ZM116.541 16.0413C116.173 16.0413 115.812 15.9317 115.506 15.7265C115.2 15.5213 114.961 15.2297 114.82 14.8884C114.679 14.5472 114.642 14.1717 114.714 13.8094C114.786 13.4472 114.963 13.1144 115.224 12.8532C115.484 12.592 115.816 12.4142 116.178 12.3421C116.539 12.2701 116.913 12.307 117.254 12.4484C117.594 12.5897 117.885 12.8291 118.09 13.1362C118.294 13.4433 118.404 13.8044 118.404 14.1738C118.402 14.6687 118.206 15.1431 117.857 15.4931C117.508 15.8431 117.035 16.0402 116.541 16.0413Z" fill="black"/>
<path d="M96.4906 20.3914C97.5193 20.3914 98.3532 19.5553 98.3532 18.5239C98.3532 17.4925 97.5193 16.6564 96.4906 16.6564C95.4619 16.6564 94.628 17.4925 94.628 18.5239C94.628 19.5553 95.4619 20.3914 96.4906 20.3914Z" fill="#F58A1F"/>
</svg>
