<svg width="40" height="28" viewBox="0 0 40 28" fill="none" xmlns="http://www.w3.org/2000/svg">
<path d="M40 2.71802V4.76744H20.2678V2.71802H40ZM40 6.82717V8.8766H20.2678V6.82717H40ZM40 10.926V12.9754H20.2678V10.926H40ZM40 15.0249V17.0744H0V15.0249H40ZM40 19.1341V21.1835H0V19.1341H40ZM40 23.2329V25.2824H0V23.2329H40Z" fill="#F4F4F5"/>
<path d="M0 0.668457H40V2.71794H0V0.668457ZM0 25.2823H40V27.3317H0V25.2823ZM0 21.1834H40V23.2329H0V21.1834ZM0 17.0743H40V19.1237H0V17.0743ZM0 12.9754H40V15.0248H0V12.9754ZM0 8.87652H40V10.9259H0V8.87652ZM0 4.76737H40V6.81679H0V4.76737Z" fill="#F90805"/>
<path d="M0 0.668457H20.2678V15.0248H0V0.668457Z" fill="#0437A0"/>
<path d="M18.5788 1.37915L18.7642 1.94563H19.3615L18.8775 2.29575L19.0629 2.86216L18.5788 2.51204L18.0948 2.86216L18.2801 2.29575L17.7961 1.94563H18.3934L18.5788 1.37915ZM1.68902 7.1052L1.87439 7.67168H2.4717L1.98766 8.0218L2.17303 8.58821L1.68902 8.23809L1.20498 8.58821L1.39035 8.0218L0.906311 7.67168H1.50362L1.68902 7.1052ZM3.37798 8.53673L3.56335 9.10315H4.16069L3.67665 9.45333L3.86202 10.0197L3.37798 9.66962L2.89395 10.0197L3.07931 9.45333L2.59528 9.10315H3.19262L3.37798 8.53673ZM16.8898 8.53673L17.0752 9.10315H17.6725L17.1885 9.45333L17.3739 10.0197L16.8898 9.66962L16.4058 10.0197L16.5912 9.45333L16.1071 9.10315H16.7045L16.8898 8.53673ZM13.5119 8.53673L13.6972 9.10315H14.2946L13.8105 9.45333L13.9959 10.0197L13.5119 9.66962L13.0278 10.0197L13.2132 9.45333L12.7292 9.10315H13.3265L13.5119 8.53673ZM10.1339 8.53673L10.3193 9.10315H10.9166L10.4326 9.45333L10.6179 10.0197L10.1339 9.66962L9.64987 10.0197L9.83523 9.45333L9.3512 9.10315H9.94853L10.1339 8.53673ZM6.75594 8.53673L6.94131 9.10315H7.53865L7.05461 9.45333L7.23998 10.0197L6.75594 9.66962L6.27191 10.0197L6.45727 9.45333L5.97324 9.10315H6.57058L6.75594 8.53673ZM5.06698 7.1052L5.25235 7.67168H5.84966L5.36562 8.0218L5.55102 8.58821L5.06698 8.23809L4.58294 8.58821L4.76831 8.0218L4.28427 7.67168H4.88158L5.06698 7.1052ZM15.2009 7.1052L15.3862 7.67168H15.9835L15.4995 8.0218L15.6849 8.58821L15.2009 8.23809L14.7168 8.58821L14.9022 8.0218L14.4182 7.67168H15.0155L15.2009 7.1052ZM18.5788 7.1052L18.7642 7.67168H19.3615L18.8775 8.0218L19.0629 8.58821L18.5788 8.23809L18.0948 8.58821L18.2801 8.0218L17.7961 7.67168H18.3934L18.5788 7.1052ZM18.5788 9.96826L18.7642 10.5347H19.3615L18.8775 10.8849L19.0629 11.4513L18.5788 11.1011L18.0948 11.4513L18.2801 10.8849L17.7961 10.5347H18.3934L18.5788 9.96826ZM15.2009 9.96826L15.3862 10.5347H15.9835L15.4995 10.8849L15.6849 11.4513L15.2009 11.1011L14.7168 11.4513L14.9022 10.8849L14.4182 10.5347H15.0155L15.2009 9.96826ZM5.06698 9.96826L5.25235 10.5347H5.84966L5.36562 10.8849L5.55102 11.4513L5.06698 11.1011L4.58294 11.4513L4.76831 10.8849L4.28427 10.5347H4.88158L5.06698 9.96826ZM3.37798 11.3998L3.56335 11.9662H4.16069L3.67665 12.3163L3.86202 12.8828L3.37798 12.5326L2.89395 12.8828L3.07931 12.3163L2.59528 11.9662H3.19262L3.37798 11.3998ZM16.8898 11.3998L17.0752 11.9662H17.6725L17.1885 12.3163L17.3739 12.8828L16.8898 12.5326L16.4058 12.8828L16.5912 12.3163L16.1071 11.9662H16.7045L16.8898 11.3998ZM13.5119 11.3998L13.6972 11.9662H14.2946L13.8105 12.3163L13.9959 12.8828L13.5119 12.5326L13.0278 12.8828L13.2132 12.3163L12.7292 11.9662H13.3265L13.5119 11.3998ZM10.1339 11.3998L10.3193 11.9662H10.9166L10.4326 12.3163L10.6179 12.8828L10.1339 12.5326L9.64987 12.8828L9.83523 12.3163L9.3512 11.9662H9.94853L10.1339 11.3998ZM6.75594 11.3998L6.94131 11.9662H7.53865L7.05461 12.3163L7.23998 12.8828L6.75594 12.5326L6.27191 12.8828L6.45727 12.3163L5.97324 11.9662H6.57058L6.75594 11.3998ZM1.68902 9.96826L1.87439 10.5347H2.4717L1.98766 10.8849L2.17303 11.4513L1.68902 11.1011L1.20498 11.4513L1.39035 10.8849L0.906311 10.5347H1.50362L1.68902 9.96826ZM1.68902 12.8313L1.87439 13.3977H2.4717L1.98766 13.7479L2.17303 14.3143L1.68902 13.9641L1.20498 14.3143L1.39035 13.7479L0.906311 13.3977H1.50362L1.68902 12.8313ZM5.06698 12.8313L5.25235 13.3977H5.84966L5.36562 13.7479L5.55102 14.3143L5.06698 13.9641L4.58294 14.3143L4.76831 13.7479L4.28427 13.3977H4.88158L5.06698 12.8313ZM15.2009 12.8313L15.3862 13.3977H15.9835L15.4995 13.7479L15.6849 14.3143L15.2009 13.9641L14.7168 14.3143L14.9022 13.7479L14.4182 13.3977H15.0155L15.2009 12.8313ZM18.5788 12.8313L18.7642 13.3977H19.3615L18.8775 13.7479L19.0629 14.3143L18.5788 13.9641L18.0948 14.3143L18.2801 13.7479L17.7961 13.3977H18.3934L18.5788 12.8313ZM3.37798 5.67374L3.56335 6.24015H4.16069L3.67665 6.59027L3.86202 7.15675L3.37798 6.80657L2.89395 7.15675L3.07931 6.59027L2.59528 6.24015H3.19262L3.37798 5.67374ZM3.37798 2.81068L3.56335 3.37709H4.16069L3.67665 3.72728L3.86202 4.29369L3.37798 3.94357L2.89395 4.29369L3.07931 3.72728L2.59528 3.37709H3.19262L3.37798 2.81068ZM16.8898 2.81068L17.0752 3.37709H17.6725L17.1885 3.72728L17.3739 4.29369L16.8898 3.94357L16.4058 4.29369L16.5912 3.72728L16.1071 3.37709H16.7045L16.8898 2.81068ZM13.5119 2.81068L13.6972 3.37709H14.2946L13.8105 3.72728L13.9959 4.29369L13.5119 3.94357L13.0278 4.29369L13.2132 3.72728L12.7292 3.37709H13.3265L13.5119 2.81068ZM10.1339 2.81068L10.3193 3.37709H10.9166L10.4326 3.72728L10.6179 4.29369L10.1339 3.94357L9.64987 4.29369L9.83523 3.72728L9.3512 3.37709H9.94853L10.1339 2.81068ZM6.75594 2.81068L6.94131 3.37709H7.53865L7.05461 3.72728L7.23998 4.29369L6.75594 3.94357L6.27191 4.29369L6.45727 3.72728L5.97324 3.37709H6.57058L6.75594 2.81068ZM1.68902 4.24221L1.87439 4.80862H2.4717L1.98766 5.1588L2.17303 5.72522L1.68902 5.37504L1.20498 5.72522L1.39035 5.1588L0.906311 4.80862H1.50362L1.68902 4.24221ZM16.8898 5.67374L17.0752 6.24015H17.6725L17.1885 6.59027L17.3739 7.15675L16.8898 6.80657L16.4058 7.15675L16.5912 6.59027L16.1071 6.24015H16.7045L16.8898 5.67374ZM13.5119 5.67374L13.6972 6.24015H14.2946L13.8105 6.59027L13.9959 7.15675L13.5119 6.80657L13.0278 7.15675L13.2132 6.59027L12.7292 6.24015H13.3265L13.5119 5.67374ZM10.1339 5.67374L10.3193 6.24015H10.9166L10.4326 6.59027L10.6179 7.15675L10.1339 6.80657L9.64987 7.15675L9.83523 6.59027L9.3512 6.24015H9.94853L10.1339 5.67374ZM6.75594 5.67374L6.94131 6.24015H7.53865L7.05461 6.59027L7.23998 7.15675L6.75594 6.80657L6.27191 7.15675L6.45727 6.59027L5.97324 6.24015H6.57058L6.75594 5.67374ZM5.06698 4.24221L5.25235 4.80862H5.84966L5.36562 5.1588L5.55102 5.72522L5.06698 5.37504L4.58294 5.72522L4.76831 5.1588L4.28427 4.80862H4.88158L5.06698 4.24221ZM5.06698 1.37915L5.25235 1.94563H5.84966L5.36562 2.29575L5.55102 2.86216L5.06698 2.51204L4.58294 2.86216L4.76831 2.29575L4.28427 1.94563H4.88158L5.06698 1.37915ZM1.68902 1.37915L1.87439 1.94563H2.4717L1.98766 2.29575L2.17303 2.86216L1.68902 2.51204L1.20498 2.86216L1.39035 2.29575L0.906311 1.94563H1.50362L1.68902 1.37915ZM8.44494 12.8313L8.63031 13.3977H9.22762L8.74358 13.7479L8.92898 14.3143L8.44494 13.9641L7.9609 14.3143L8.14627 13.7479L7.66223 13.3977H8.25954L8.44494 12.8313ZM8.44494 9.96826L8.63031 10.5347H9.22762L8.74358 10.8849L8.92898 11.4513L8.44494 11.1011L7.9609 11.4513L8.14627 10.8849L7.66223 10.5347H8.25954L8.44494 9.96826ZM8.44494 7.1052L8.63031 7.67168H9.22762L8.74358 8.0218L8.92898 8.58821L8.44494 8.23809L7.9609 8.58821L8.14627 8.0218L7.66223 7.67168H8.25954L8.44494 7.1052ZM8.44494 4.24221L8.63031 4.80862H9.22762L8.74358 5.1588L8.92898 5.72522L8.44494 5.37504L7.9609 5.72522L8.14627 5.1588L7.66223 4.80862H8.25954L8.44494 4.24221ZM8.44494 1.37915L8.63031 1.94563H9.22762L8.74358 2.29575L8.92898 2.86216L8.44494 2.51204L7.9609 2.86216L8.14627 2.29575L7.66223 1.94563H8.25954L8.44494 1.37915ZM11.8229 12.8313L12.0083 13.3977H12.6056L12.1215 13.7479L12.3069 14.3143L11.8229 13.9641L11.3389 14.3143L11.5242 13.7479L11.0402 13.3977H11.6375L11.8229 12.8313ZM11.8229 9.96826L12.0083 10.5347H12.6056L12.1215 10.8849L12.3069 11.4513L11.8229 11.1011L11.3389 11.4513L11.5242 10.8849L11.0402 10.5347H11.6375L11.8229 9.96826ZM11.8229 7.1052L12.0083 7.67168H12.6056L12.1215 8.0218L12.3069 8.58821L11.8229 8.23809L11.3389 8.58821L11.5242 8.0218L11.0402 7.67168H11.6375L11.8229 7.1052ZM11.8229 4.24221L12.0083 4.80862H12.6056L12.1215 5.1588L12.3069 5.72522L11.8229 5.37504L11.3389 5.72522L11.5242 5.1588L11.0402 4.80862H11.6375L11.8229 4.24221ZM11.8229 1.37915L12.0083 1.94563H12.6056L12.1215 2.29575L12.3069 2.86216L11.8229 2.51204L11.3389 2.86216L11.5242 2.29575L11.0402 1.94563H11.6375L11.8229 1.37915ZM15.2009 4.24221L15.3862 4.80862H15.9835L15.4995 5.1588L15.6849 5.72522L15.2009 5.37504L14.7168 5.72522L14.9022 5.1588L14.4182 4.80862H15.0155L15.2009 4.24221ZM15.2009 1.37915L15.3862 1.94563H15.9835L15.4995 2.29575L15.6849 2.86216L15.2009 2.51204L14.7168 2.86216L14.9022 2.29575L14.4182 1.94563H15.0155L15.2009 1.37915ZM18.5788 4.24221L18.7642 4.80862H19.3615L18.8775 5.1588L19.0629 5.72522L18.5788 5.37504L18.0948 5.72522L18.2801 5.1588L17.7961 4.80862H18.3934L18.5788 4.24221Z" fill="#F4F4F5"/>
</svg>
