<svg xmlns="http://www.w3.org/2000/svg" width="189" height="40" viewBox="0 0 189 40" fill="none">
  <g clip-path="url(#clip0_14_140)">
    <path d="M116.512 29.2127C116.769 30.1975 117.222 31.0582 117.84 31.8343C119.019 33.3128 120.585 34.1392 122.429 34.4718C124.506 34.8467 126.551 34.7648 128.522 33.957C130.223 33.26 131.463 32.0693 132.25 30.4033C132.327 30.2397 132.574 30.0918 132.764 30.0575C134.765 29.688 136.77 29.3447 138.773 28.9937C138.967 28.9593 139.16 28.9328 139.528 28.8748C139.136 29.9493 138.855 30.9552 138.416 31.8818C136.328 36.2672 132.807 38.8148 128.046 39.657C124.1 40.354 120.243 40.0425 116.629 38.1997C112.573 36.1325 110.223 32.7478 109.33 28.352C108.617 24.8433 108.869 21.3953 110.389 18.1163C112.432 13.7178 115.929 11.075 120.651 10.0639C124.204 9.30353 127.701 9.56753 131.016 11.1226C135.422 13.1898 137.992 16.7382 139.043 21.4058C139.293 22.5068 139.322 23.6553 139.451 24.7827C139.491 25.1152 139.425 25.2922 139.012 25.3608C135.771 25.8862 132.536 26.4458 129.299 26.995C125.926 27.5678 122.553 28.1462 119.18 28.719C118.391 28.8537 117.599 28.983 116.809 29.1177C116.722 29.1335 116.639 29.1678 116.515 29.2075L116.512 29.2127ZM132.356 21.1947C132.213 20.7327 132.11 20.3367 131.967 19.9512C131.177 17.8127 129.826 16.189 127.635 15.3732C126.178 14.8293 124.665 14.7052 123.123 14.89C120.985 15.1461 119.202 16.0306 117.909 17.7915C116.87 19.2067 116.385 20.8277 116.139 22.5358C116.075 22.9793 116.073 23.4308 116.036 23.951C121.507 23.0268 126.88 22.1187 132.354 21.1947H132.356Z" fill="#FF0A8C" fill-opacity="0.07"/>
    <path d="M172.918 39.9772C169.163 39.9638 165.706 39.0135 162.72 36.6743C159.784 34.3722 157.978 31.365 157.318 27.7032C156.499 23.1622 157.471 19.0223 160.33 15.379C162.572 12.5224 165.566 10.8195 169.103 10.0856C172.512 9.37803 175.889 9.56283 179.179 10.7746C181.621 11.6749 183.698 13.1138 185.36 15.1124C185.969 15.8463 186.608 16.5908 187.036 17.433C187.747 18.8243 188.287 20.295 188.577 21.8527C189.186 25.1607 188.826 28.3368 187.394 31.3862C185.648 35.1087 182.775 37.6037 178.921 39.0082C176.988 39.713 174.977 39.9903 172.92 39.9823L172.918 39.9772ZM164.095 25.2557C164.164 25.7125 164.22 26.597 164.44 27.4338C165.155 30.1637 166.747 32.2072 169.408 33.3108C170.915 33.9365 172.497 34.1002 174.129 33.9048C176.488 33.625 178.443 32.6217 179.876 30.734C181.652 28.3895 182.144 25.723 181.602 22.8717C181.187 20.6672 180.137 18.8033 178.322 17.4172C176.431 15.9704 174.256 15.5427 171.938 15.7486C170.123 15.9097 168.486 16.5592 167.123 17.7947C165.041 19.6798 164.164 22.0823 164.095 25.2532V25.2557Z" fill="#FF0A8C" fill-opacity="0.07"/>
    <path d="M77.8135 11.5662C79.1806 11.3339 80.4842 11.1094 81.7878 10.8877C82.5932 10.7504 83.4092 10.6606 84.2013 10.4732C84.6332 10.3728 84.7657 10.5233 84.8983 10.8797C86.9781 16.4029 89.0685 21.9208 91.1589 27.4387C91.5457 28.4603 91.9326 29.4795 92.3193 30.4985C92.3723 30.6385 92.4386 30.7732 92.5446 31.0055C92.6558 30.7573 92.7353 30.5988 92.799 30.4352C94.8046 25.147 96.8394 19.8693 98.8 14.5654C99.73 12.0467 101.484 10.6817 104.117 10.3253C105.095 10.1933 106.062 9.99268 107.035 9.82634C107.196 9.79994 107.36 9.78937 107.57 9.76562C107.583 9.96099 107.599 10.1115 107.599 10.2593C107.599 12.1232 107.583 13.9845 107.612 15.8485C107.62 16.2841 107.435 16.4029 107.069 16.4557C106.581 16.527 106.099 16.6537 105.612 16.6987C105.259 16.7303 105.114 16.9072 104.989 17.2028C103.267 21.3478 101.534 25.4902 99.8067 29.6352C98.5827 32.5737 97.3534 35.5068 96.1426 38.4507C96.0021 38.7912 95.8008 38.947 95.4484 39.005C93.6679 39.2955 91.8901 39.5963 90.115 39.9053C89.7599 39.966 89.5693 39.9027 89.4156 39.5303C85.611 30.356 81.793 21.1868 77.9777 12.0176C77.9249 11.8936 77.8877 11.7616 77.8162 11.5583L77.8135 11.5662Z" fill="#FF0A8C" fill-opacity="0.07"/>
    <path d="M150.223 0.0368199V33.1255C151.007 32.9962 151.733 32.88 152.456 32.7558C153.519 32.5712 154.586 32.4022 155.641 32.183C156.057 32.0958 156.038 32.3097 156.038 32.5763C156.038 34.1922 156.038 35.8105 156.036 37.4263C156.036 37.8408 156.155 38.3688 155.948 38.6328C155.75 38.8863 155.201 38.8915 154.798 38.9602C152.809 39.3008 150.824 39.6995 148.821 39.9397C146.031 40.2723 143.241 38.0493 142.839 35.2772C142.78 34.868 142.746 34.4508 142.746 34.039C142.741 23.2883 142.746 12.5404 142.73 1.78987C142.73 1.34632 142.847 1.18528 143.289 1.11927C145.515 0.781335 147.735 0.409078 149.958 0.0500205C150.016 0.03946 150.08 0.0421 150.223 0.0341797V0.0368199Z" fill="#FF0A8C" fill-opacity="0.07"/>
    <path d="M57.485 0V33.1362C59.4429 32.7957 61.3294 32.4683 63.2634 32.133C63.2768 32.3072 63.2953 32.4392 63.2953 32.5712C63.2953 34.48 63.2873 36.3915 63.3032 38.3003C63.3059 38.6462 63.1998 38.7755 62.8501 38.8362C60.8286 39.1742 58.807 39.5173 56.7934 39.9028C53.6194 40.5102 50.4189 38.1973 50.077 35.008C50.0267 34.5513 49.9976 34.0893 49.9976 33.63C49.9922 23.0193 49.9976 12.4086 49.9844 1.79793C49.9844 1.35967 50.0902 1.19598 50.538 1.12733C52.8219 0.778837 55.1004 0.390738 57.4823 0.00264013L57.485 0Z" fill="#FF0A8C" fill-opacity="0.07"/>
    <path d="M74.7139 10.4265V10.9624C74.7139 20.047 74.7112 29.1317 74.7217 38.2164C74.7217 38.6442 74.5973 38.7814 74.1681 38.8474C72.0829 39.1749 70.0031 39.5497 67.9232 39.9035C67.7908 39.9272 67.6529 39.9194 67.4491 39.9299V39.4019C67.4491 30.3172 67.4516 21.2325 67.4384 12.1478C67.4384 11.7016 67.6026 11.5855 68.0027 11.5221C70.1038 11.1842 72.1995 10.8198 74.2979 10.4687C74.4145 10.4502 74.5337 10.4449 74.7165 10.4265H74.7139Z" fill="#FF0A8C" fill-opacity="0.07"/>
    <path d="M71.0782 7.50307C73.1209 7.50307 74.7769 5.85297 74.7769 3.81745C74.7769 1.78195 73.1209 0.131836 71.0782 0.131836C69.0355 0.131836 67.3796 1.78195 67.3796 3.81745C67.3796 5.85297 69.0355 7.50307 71.0782 7.50307Z" fill="#FF0A8C" fill-opacity="0.07"/>
    <path d="M0 20.3585C0.0211958 17.2037 1.35653 15.1707 4.31599 14.0249C5.78909 13.4547 7.31254 12.9953 8.84129 12.5887C10.3382 12.19 11.2709 11.3716 11.6815 9.83769C12.1213 8.18232 12.638 6.53224 13.295 4.95081C15.0013 0.842774 20.499 -0.477287 23.9645 2.33444C25.1807 3.32186 25.8085 4.68681 26.2934 6.12039C26.7544 7.48269 27.1836 8.85556 27.5758 10.2363C27.9016 11.3874 28.6355 12.0633 29.7615 12.4144C31.5207 12.961 33.3145 13.4415 35.0128 14.1385C39.3659 15.9285 40.5581 21.9057 37.2807 25.1954C36.197 26.283 34.7956 26.7952 33.3833 27.2652C32.2228 27.6507 31.0492 27.9965 29.8702 28.3212C28.6409 28.6619 27.8725 29.4037 27.5069 30.6314C27.0113 32.2945 26.5159 33.9632 25.9012 35.5842C24.7036 38.7392 22.1628 40.1464 18.5648 39.7979C15.3987 39.4915 13.7508 37.5194 12.8181 34.7394C12.3545 33.3585 11.92 31.9645 11.5225 30.5627C11.1887 29.393 10.4469 28.704 9.29435 28.3529C7.56953 27.8249 5.83943 27.31 4.15437 26.6737C1.85198 25.8052 0.445112 24.1392 0.0847831 21.6734C0.0211958 21.2404 0.0264948 20.7969 0.00264948 20.356L0 20.3585Z" fill="#FF0A8C" fill-opacity="0.07"/>
  </g>
  <defs>
    <clipPath id="clip0_14_140">
      <rect width="189" height="40" fill="white"/>
    </clipPath>
  </defs>
</svg>