<svg width="267" height="57" viewBox="0 0 267 57" fill="none" xmlns="http://www.w3.org/2000/svg">
<g clip-path="url(#clip0_14_149)">
<path d="M164.597 41.628C164.96 43.0314 165.6 44.2579 166.472 45.3639C168.138 47.4708 170.35 48.6483 172.955 49.1224C175.889 49.6565 178.779 49.5399 181.563 48.3887C183.966 47.3955 185.718 45.6988 186.83 43.3247C186.938 43.0915 187.286 42.8809 187.556 42.8319C190.382 42.3054 193.215 41.8161 196.045 41.316C196.318 41.267 196.591 41.2293 197.112 41.1466C196.557 42.6778 196.161 44.1111 195.54 45.4316C192.59 51.6807 187.616 55.3111 180.89 56.5112C175.317 57.5044 169.867 57.0606 164.762 54.4345C159.031 51.4888 155.711 46.6657 154.45 40.4016C153.443 35.4017 153.799 30.4883 155.947 25.8158C158.833 19.5479 163.773 15.7819 170.443 14.341C175.463 13.2575 180.403 13.6337 185.085 15.8497C191.31 18.7954 194.941 23.8519 196.427 30.5033C196.778 32.0722 196.819 33.7088 197.003 35.3153C197.059 35.7891 196.965 36.0413 196.382 36.1392C191.804 36.8878 187.234 37.6853 182.66 38.4679C177.895 39.2842 173.131 40.1083 168.366 40.9246C167.251 41.1165 166.131 41.3008 165.016 41.4927C164.893 41.5152 164.776 41.5642 164.601 41.6207L164.597 41.628ZM186.979 30.2024C186.777 29.544 186.631 28.9797 186.429 28.4304C185.314 25.383 183.405 23.0693 180.31 21.9068C178.251 21.1318 176.114 20.9549 173.935 21.2183C170.915 21.5832 168.396 22.8436 166.569 25.3529C165.102 27.3695 164.417 29.6794 164.069 32.1136C163.979 32.7455 163.976 33.3889 163.923 34.1302C171.652 32.8132 179.243 31.5191 186.976 30.2024H186.979Z" fill="#FF0A8C"/>
<path d="M244.281 56.9675C238.977 56.9485 234.093 55.5942 229.874 52.2609C225.727 48.9803 223.175 44.6951 222.243 39.477C221.086 33.0061 222.46 27.1068 226.498 21.9151C229.665 17.8444 233.894 15.4178 238.892 14.372C243.707 13.3637 248.478 13.627 253.125 15.3539C256.575 16.6368 259.51 18.6872 261.858 21.5351C262.719 22.581 263.621 23.642 264.226 24.842C265.23 26.8247 265.993 28.9204 266.402 31.14C267.262 35.8539 266.754 40.38 264.732 44.7253C262.265 50.0298 258.205 53.5852 252.762 55.5866C250.03 56.591 247.19 56.9862 244.284 56.9748L244.281 56.9675ZM231.817 35.9893C231.914 36.6403 231.993 37.9007 232.304 39.0932C233.314 42.9832 235.564 45.8952 239.322 47.4679C241.451 48.3595 243.686 48.5927 245.992 48.3144C249.324 47.9156 252.086 46.4859 254.111 43.7959C256.62 40.455 257.315 36.6553 256.549 32.5921C255.963 29.4507 254.479 26.7947 251.916 24.8195C249.243 22.7578 246.172 22.1484 242.897 22.4418C240.333 22.6713 238.02 23.5968 236.095 25.3574C233.153 28.0438 231.914 31.4673 231.817 35.9858V35.9893Z" fill="#FF0A8C"/>
<path d="M109.927 16.4818C111.858 16.1507 113.7 15.831 115.542 15.5149C116.679 15.3193 117.832 15.1914 118.951 14.9243C119.561 14.7813 119.748 14.9957 119.936 15.5036C122.874 23.3741 125.827 31.2372 128.78 39.1001C129.327 40.556 129.873 42.0083 130.419 43.4604C130.494 43.6599 130.588 43.8518 130.738 44.1828C130.895 43.8292 131.007 43.6033 131.097 43.3701C133.93 35.8345 136.805 28.3138 139.575 20.7556C140.888 17.1665 143.366 15.2215 147.087 14.7136C148.468 14.5255 149.834 14.2396 151.208 14.0025C151.436 13.9649 151.668 13.9499 151.964 13.916C151.982 14.1944 152.005 14.4089 152.005 14.6195C152.005 17.2756 151.982 19.928 152.023 22.5841C152.035 23.2048 151.773 23.3741 151.256 23.4494C150.567 23.5509 149.886 23.7315 149.198 23.7956C148.7 23.8407 148.494 24.0927 148.318 24.514C145.885 30.4207 143.437 36.3235 140.997 42.2301C139.268 46.4175 137.531 50.5972 135.821 54.7922C135.622 55.2774 135.338 55.4995 134.84 55.5821C132.325 55.9961 129.813 56.4248 127.305 56.8651C126.804 56.9515 126.534 56.8613 126.317 56.3307C120.943 43.2573 115.549 30.1912 110.159 17.1251C110.084 16.9483 110.032 16.7602 109.931 16.4705L109.927 16.4818Z" fill="#FF0A8C"/>
<path d="M212.219 0.0524683V47.2038C213.327 47.0195 214.353 46.854 215.375 46.6771C216.876 46.4139 218.384 46.1731 219.874 45.8608C220.461 45.7366 220.435 46.0413 220.435 46.4213C220.435 48.7238 220.435 51.03 220.431 53.3325C220.431 53.9232 220.6 54.6756 220.308 55.0518C220.027 55.413 219.252 55.4204 218.683 55.5182C215.873 56.0037 213.069 56.5718 210.239 56.914C206.298 57.3881 202.357 54.2203 201.788 50.27C201.706 49.6869 201.657 49.0924 201.657 48.5056C201.65 33.1859 201.657 17.8701 201.634 2.55056C201.634 1.91851 201.799 1.68902 202.424 1.59496C205.568 1.1134 208.705 0.582937 211.845 0.0712792C211.927 0.0562305 212.017 0.0599925 212.219 0.0487061V0.0524683Z" fill="#FF0A8C"/>
<path d="M81.2089 0V47.219C83.9748 46.7338 86.6398 46.2674 89.372 45.7895C89.3909 46.0377 89.4171 46.2258 89.4171 46.4139C89.4171 49.134 89.4058 51.8579 89.4282 54.578C89.432 55.0708 89.2822 55.2551 88.7881 55.3415C85.9324 55.8232 83.0764 56.3122 80.2318 56.8615C75.7479 57.727 71.2266 54.4312 70.7436 49.8864C70.6725 49.2357 70.6314 48.5773 70.6314 47.9227C70.6238 32.8026 70.6314 17.6822 70.6127 2.56206C70.6127 1.93752 70.7623 1.70427 71.3948 1.60645C74.6213 1.10984 77.8402 0.556802 81.2051 0.00376219L81.2089 0Z" fill="#FF0A8C"/>
<path d="M105.548 14.8577V15.6214C105.548 28.567 105.544 41.5126 105.559 54.4583C105.559 55.0679 105.383 55.2634 104.777 55.3575C101.831 55.8241 98.8932 56.3583 95.9551 56.8625C95.7679 56.8962 95.5732 56.8851 95.2852 56.9V56.1476C95.2852 43.202 95.2887 30.2563 95.2701 17.3106C95.2701 16.6748 95.5021 16.5093 96.0673 16.419C99.0355 15.9374 101.996 15.4182 104.961 14.9178C105.125 14.8915 105.294 14.884 105.552 14.8577H105.548Z" fill="#FF0A8C"/>
<path d="M100.412 10.6919C103.298 10.6919 105.637 8.34048 105.637 5.43987C105.637 2.53928 103.298 0.187866 100.412 0.187866C97.5263 0.187866 95.1871 2.53928 95.1871 5.43987C95.1871 8.34048 97.5263 10.6919 100.412 10.6919Z" fill="#FF0A8C"/>
<path d="M0 29.0109C0.0299432 24.5152 1.91637 21.6183 6.09719 19.9855C8.17823 19.1729 10.3304 18.5182 12.4901 17.9389C14.6048 17.3708 15.9223 16.2045 16.5025 14.0187C17.1238 11.6598 17.8537 9.30841 18.7819 7.05487C21.1923 1.20092 28.9589 -0.680164 33.8547 3.32655C35.5727 4.73362 36.4597 6.67867 37.1447 8.72153C37.7959 10.6628 38.4022 12.6191 38.9562 14.5868C39.4165 16.2271 40.4533 17.1902 42.044 17.6905C44.5292 18.4693 47.0634 19.154 49.4626 20.1473C55.6121 22.698 57.2963 31.2156 52.6663 35.9034C51.1355 37.4533 49.1556 38.1831 47.1605 38.8529C45.5211 39.4022 43.8631 39.895 42.1976 40.3577C40.4609 40.8431 39.3754 41.9002 38.8589 43.6497C38.1588 46.0197 37.4589 48.3975 36.5906 50.7074C34.8988 55.2033 31.3094 57.2085 26.2265 56.7119C21.7538 56.2754 19.4257 53.4651 18.1082 49.5036C17.4532 47.5359 16.8393 45.5494 16.2779 43.5518C15.8063 41.885 14.7583 40.9032 13.1301 40.4028C10.6935 39.6504 8.24935 38.9168 5.86887 38.01C2.61629 36.7724 0.628809 34.3983 0.119773 30.8845C0.0299432 30.2675 0.0374291 29.6355 0.00374291 29.0073L0 29.0109Z" fill="#FF0A8C"/>
</g>
<defs>
<clipPath id="clip0_14_149">
<rect width="267" height="57" fill="white"/>
</clipPath>
</defs>
</svg>
