<svg width="112" height="28" viewBox="0 0 112 28" fill="none" xmlns="http://www.w3.org/2000/svg">
<path d="M101.239 22.6682C98.242 22.6682 96.2465 20.44 96.2465 17.225C96.2465 14.0099 98.2441 11.7796 101.239 11.7796C104.198 11.7796 106.196 14.0057 106.196 17.2228C106.196 20.44 104.198 22.6661 101.239 22.6661V22.6682ZM101.239 8.02344C95.7477 8.02344 91.8188 11.9112 91.8188 17.2144C91.8188 22.5175 95.7412 26.4031 101.239 26.4031C106.695 26.4031 110.619 22.5154 110.619 17.2144C110.619 11.9133 106.695 8.03405 101.239 8.03405" fill="#00A1FC"/>
<path d="M81.1606 2.94531V19.9117C81.1606 23.8695 83.7299 26.1316 87.6523 26.1316H90.5748V22.2078H88.1512C86.5111 22.2078 85.5476 21.289 85.5476 19.4873V11.958H90.5748V8.31641H85.5476V2.94531H81.1606Z" fill="#00A1FC"/>
<path d="M72.8538 26.1316V14.9629C72.8538 13.1591 73.8173 12.2402 75.4573 12.2402H78.9493V8.31641H74.9584C71.0339 8.31641 68.4668 10.5786 68.4668 14.5385V26.1316H72.8538Z" fill="#00A1FC"/>
<path d="M57.1511 22.6682C54.1536 22.6682 52.1581 20.44 52.1581 17.225C52.1581 14.0099 54.1557 11.7796 57.1511 11.7796C60.11 11.7796 62.1076 14.0057 62.1076 17.2228C62.1076 20.44 60.11 22.6661 57.1511 22.6661V22.6682ZM57.1511 8.02344C51.6593 8.02344 47.7305 11.9112 47.7305 17.2144C47.7305 22.5175 51.67 26.4223 57.1511 26.4223C62.6064 26.4223 66.5288 22.5345 66.5288 17.2335C66.5288 11.9324 62.6064 8.04254 57.1511 8.04254" fill="#00A1FC"/>
<path d="M39.1043 12.8064H34.0408V5.31315H39.1043C41.8877 5.31315 43.0289 7.07876 43.0289 9.0587C43.0289 11.0386 41.8877 12.8064 39.1043 12.8064ZM39.3184 1.38935H29.2983V26.1312H34.0408V16.7302H39.3184C44.5255 16.7302 47.6278 13.547 47.6278 9.0587C47.6278 4.57041 44.5255 1.38086 39.3184 1.38086" fill="#00A1FC"/>
<path d="M21.8452 14.6781C19.6484 12.0085 12.4032 13.4048 6.75936 15.1916C6.7439 15.1982 6.72705 15.201 6.71027 15.1996C6.69349 15.1983 6.67731 15.1928 6.66314 15.1838C6.64898 15.1748 6.63726 15.1625 6.62903 15.148C6.62079 15.1334 6.61629 15.1171 6.61591 15.1004C6.61591 14.8181 6.62875 14.5317 6.62875 14.2515C6.63439 12.8291 6.51403 11.4089 6.26906 10.0073C6.26587 9.98376 6.27185 9.95992 6.28577 9.94061C6.29969 9.92129 6.32051 9.90795 6.344 9.90331C11.0158 8.20561 20.4256 7.69206 22.0357 14.6038C22.0614 14.7057 21.9094 14.7651 21.843 14.6802L21.8452 14.6781ZM17.1156 22.4323C16.9614 22.5448 16.7602 22.3602 16.9015 22.2201C19.1753 19.9155 21.0423 16.2612 4.56693 23.7056C4.4663 23.7502 4.36567 23.6462 4.43204 23.5634C5.33984 22.2901 6.14488 20.2062 6.51528 17.2692C6.51745 17.2509 6.52457 17.2336 6.53588 17.219C6.54719 17.2045 6.56226 17.1932 6.57951 17.1864C16.9036 13.0759 28.5659 13.2287 17.1242 22.4366L17.1156 22.4323ZM3.34011 4.05474C3.3203 4.04487 3.30464 4.02839 3.29588 4.00821C3.28712 3.98802 3.28582 3.96542 3.29221 3.94438C3.29861 3.92334 3.31228 3.90521 3.33083 3.89318C3.34939 3.88114 3.37162 3.87598 3.39363 3.8786C6.24979 3.8786 14.8546 3.66639 19.2909 9.27516C19.3508 9.37278 19.2117 9.47039 19.1239 9.394C17.7857 8.23956 14.1631 6.28509 5.81302 7.99552C5.78605 8.00293 5.75724 7.99979 5.73254 7.98676C5.70784 7.97373 5.68913 7.9518 5.68027 7.92549C5.01655 5.82034 4.18154 4.68076 3.34011 4.05474ZM21.6824 1.38086H2.92046C2.14062 1.38647 1.39493 1.69877 0.84731 2.24911C0.299688 2.79945 -0.00505034 3.5428 7.8484e-05 4.31576V23.1857C-0.00274343 23.5686 0.0705574 23.9483 0.215795 24.3031C0.361033 24.658 0.575364 24.981 0.846548 25.2537C1.11773 25.5264 1.44046 25.7435 1.79631 25.8926C2.15215 26.0418 2.53414 26.1199 2.92046 26.1227H21.6824C22.0688 26.1199 22.4508 26.0418 22.8066 25.8926C23.1624 25.7435 23.4852 25.5264 23.7564 25.2537C24.0275 24.981 24.2419 24.658 24.3871 24.3031C24.5323 23.9483 24.6056 23.5686 24.6028 23.1857V4.32424C24.6065 3.9408 24.5338 3.56041 24.389 3.20484C24.2441 2.84927 24.0299 2.52552 23.7586 2.25211C23.4874 1.9787 23.1644 1.76102 22.8081 1.61152C22.4518 1.46201 22.0693 1.38363 21.6824 1.38086Z" fill="#00A1FC"/>
</svg>
